<?xml version="1.0" standalone="no"?>
<!DOCTYPE svg PUBLIC "-//W3C//DTD SVG 20010904//EN"
 "http://www.w3.org/TR/2001/REC-SVG-20010904/DTD/svg10.dtd">
<svg version="1.0" xmlns="http://www.w3.org/2000/svg"
 width="96.000000pt" height="96.000000pt" viewBox="0 0 96.000000 96.000000"
 preserveAspectRatio="xMidYMid meet">
<metadata>
Created by potrace 1.11, written by Peter Selinger 2001-2013
</metadata>
<g transform="translate(0.000000,96.000000) scale(0.100000,-0.100000)"
fill="#000000" stroke="none">
<path d="M424 870 c-6 -27 -14 -34 -36 -31 -14 1 -115 -32 -152 -51 -94 -48
-176 -172 -176 -267 0 -37 2 -39 35 -43 22 -2 35 0 35 7 0 25 42 50 82 50 31
0 45 -6 64 -28 31 -37 73 -36 111 2 38 38 95 37 129 -2 33 -38 78 -39 108 -2
20 24 31 30 66 30 33 0 47 -6 66 -28 16 -19 33 -27 55 -27 l32 0 -6 60 c-7 78
-48 152 -115 206 -52 43 -144 84 -197 88 -23 2 -33 9 -44 34 -19 42 -49 43
-57 2z m179 -123 c53 -24 127 -86 127 -105 0 -5 7 -15 15 -22 26 -21 17 -30
-25 -24 -50 8 -81 0 -117 -30 l-29 -24 -44 29 c-57 38 -103 38 -160 0 l-44
-29 -29 24 c-36 30 -67 38 -118 30 l-41 -7 23 38 c62 105 166 154 311 148 56
-2 93 -10 131 -28z"/>
<path d="M448 482 l-28 -3 -1 -107 c0 -59 -2 -120 -3 -136 -2 -30 -29 -56 -58
-56 -19 0 -58 33 -58 50 0 6 -13 10 -30 10 -34 0 -36 -9 -14 -55 20 -42 74
-69 121 -62 39 7 92 45 92 68 1 9 4 18 7 22 6 6 9 266 3 270 -2 1 -16 1 -31
-1z"/>
</g>
</svg>
